<svg width="27" height="27" viewBox="0 0 27 27" fill="none" xmlns="http://www.w3.org/2000/svg">
<path d="M18.4994 4.71581C18.233 4.71581 17.9775 4.83082 17.7891 5.03555C17.6007 5.24028 17.4949 5.51795 17.4949 5.80748C17.4949 6.097 17.6007 6.37468 17.7891 6.5794C17.9775 6.78413 18.233 6.89914 18.4994 6.89914C18.9856 6.89914 19.3874 7.05634 19.6788 7.33581C19.9641 7.6131 20.2313 8.09343 20.3076 8.92528C20.3208 9.06792 20.3597 9.20634 20.4221 9.33264C20.4846 9.45894 20.5692 9.57064 20.6714 9.66137C20.7735 9.7521 20.8911 9.82007 21.0174 9.86141C21.1438 9.90276 21.2763 9.91666 21.4076 9.90232C21.5388 9.88799 21.6662 9.84569 21.7824 9.77786C21.8987 9.71003 22.0014 9.61799 22.0849 9.50699C22.1684 9.39598 22.231 9.2682 22.269 9.13093C22.307 8.99366 22.3198 8.84959 22.3066 8.70695C22.1901 7.43406 21.7401 6.41008 21.0148 5.70704C20.3177 5.05057 19.4217 4.69751 18.4994 4.71581ZM11.5159 1.56744C10.7978 0.91883 9.95511 0.453462 9.04971 0.205591C8.14431 -0.0422799 7.19928 -0.0663429 6.28419 0.135173C4.64076 0.484507 3.1902 1.47137 2.22785 2.60234L2.22383 2.60889C1.17308 3.86213 0.0982218 5.49089 0.00580385 7.86418V7.86855C-0.0343778 9.03445 0.118313 10.7353 0.964137 12.0365L0.976192 12.0518C1.87224 13.3727 2.37251 14.1456 2.62364 14.8923C2.91094 15.7482 2.91094 16.6128 2.91094 17.8988V18.0036C2.92099 19.2481 3.16409 20.9664 3.74873 22.5296C4.32735 24.0711 5.32184 25.6736 6.96126 26.3221L7.00144 26.3374L7.04564 26.3505C7.99593 26.6256 8.90605 26.5339 9.59718 25.833C10.1999 25.2217 10.441 24.3178 10.5776 23.534C10.7022 22.8113 10.7645 21.9707 10.8267 21.1541L10.8488 20.8463C10.9212 19.9031 11.0035 18.9686 11.1723 18.0909V18.0844C11.6284 15.6762 12.2813 15.2984 12.5324 15.2133C13.2758 15.0059 13.7218 15.115 14.0111 15.2941C14.3246 15.4884 14.6139 15.8617 14.865 16.4774C15.3833 17.7547 15.536 19.5647 15.6767 21.2415C15.7972 22.9074 16.1187 24.4401 16.7495 25.4335C17.081 25.9553 17.5572 26.4182 18.2081 26.5688C18.8651 26.7238 19.4979 26.512 20.0464 26.1321C22.0435 24.7457 23.1886 21.8834 23.49 18.1521C23.6306 16.3814 23.7954 15.591 24.0385 14.9535C24.163 14.626 24.3197 14.3116 24.5407 13.8989L24.7537 13.5059C24.9345 13.1784 25.1455 12.7898 25.3765 12.34L25.3805 12.3378C25.8145 11.4907 26.5297 9.94053 26.6121 8.124C26.6985 6.22886 26.0898 4.14378 24.0505 2.34907C22.1098 0.63734 20.2895 0.00635654 18.6521 0.10024C17.0308 0.19194 15.7349 0.986674 14.8087 1.83599L14.7766 1.86656L14.7485 1.89712C13.8685 2.85343 13.4968 2.97788 13.2959 2.96696C13.0508 2.95604 12.5967 2.74208 11.6002 1.64822L11.5601 1.60456L11.5159 1.56744ZM2.01288 7.95588C2.07717 6.33366 2.78236 5.18304 3.70654 4.08264C4.40972 3.25734 5.48659 2.53029 6.66793 2.27921C7.2872 2.13962 7.92739 2.15268 8.5414 2.31742C9.15542 2.48216 9.72764 2.79439 10.216 3.23114C11.1602 4.26386 12.1085 5.09789 13.2095 5.15029C14.3547 5.20269 15.2829 4.39923 16.1367 3.47568C16.8339 2.84251 17.7159 2.34034 18.7566 2.27921C19.7973 2.22026 21.1434 2.59798 22.7848 4.04334C24.3097 5.38609 24.6613 6.79434 24.605 8.01701C24.5468 9.31173 24.0224 10.4973 23.6266 11.2702C23.3608 11.7847 23.0869 12.2943 22.8049 12.7985C22.5718 13.2352 22.3609 13.65 22.1821 14.1172C21.8204 15.0692 21.6356 16.1303 21.4869 17.9599C21.2077 21.4249 20.183 23.4466 18.9655 24.2916C18.8832 24.3529 18.7923 24.3994 18.6963 24.4291C18.6501 24.4401 18.632 24.4357 18.63 24.4357C18.6093 24.4293 18.5902 24.4181 18.5738 24.4029C18.5072 24.3431 18.4496 24.2724 18.403 24.1933C18.0815 23.6912 17.7922 22.6388 17.6797 21.0646V21.0515L17.6657 20.8878C17.5371 19.3376 17.3603 17.2154 16.7033 15.5975C16.3557 14.7395 15.8294 13.9055 15.0036 13.3946C14.1558 12.8706 13.1432 12.7832 12.0101 13.1064L11.994 13.1107L11.9799 13.1151C10.6339 13.5408 9.7137 14.9578 9.20741 17.6455C9.00851 18.6695 8.9181 19.7241 8.84578 20.6651L8.82569 20.9707C8.78363 21.6947 8.70921 22.4161 8.60268 23.1322C8.48213 23.8396 8.32743 24.1322 8.22296 24.237C8.20086 24.2588 8.09036 24.3833 7.60617 24.2545C6.76637 23.9008 6.08931 22.986 5.61115 21.7065C5.18014 20.5206 4.94614 19.2609 4.92003 17.9861V17.7612C4.92003 16.5997 4.92404 15.3748 4.51017 14.1456C4.14251 13.0452 3.44335 12.0081 2.59953 10.7658C2.13342 10.0453 1.97672 8.93183 2.01288 7.95588Z" fill="#159EEC"/>
</svg>
