<svg width="27" height="27" viewBox="0 0 27 27" fill="none" xmlns="http://www.w3.org/2000/svg">
<path d="M8.10174 12.2862C6.56694 12.2862 5.09501 11.7468 4.00974 10.7868C2.92448 9.82672 2.31478 8.52463 2.31478 7.16692V3.07154C2.31478 2.8 2.43672 2.53958 2.65377 2.34757C2.87083 2.15556 3.16521 2.04769 3.47217 2.04769H4.62956C4.93652 2.04769 5.23091 1.93982 5.44796 1.74781C5.66501 1.55581 5.78695 1.29539 5.78695 1.02385C5.78695 0.752305 5.66501 0.491886 5.44796 0.299878C5.23091 0.107869 4.93652 0 4.62956 0H3.47217C2.5513 0 1.66813 0.323608 1.01698 0.899633C0.365817 1.47566 0 2.25692 0 3.07154V7.16692C0.00148773 8.3236 0.320333 9.46267 0.929153 10.4863C1.53797 11.51 2.41857 12.3876 3.49532 13.0438C4.52983 13.8506 5.3688 14.8345 5.96159 15.9361C6.55438 17.0376 6.88869 18.2341 6.94434 19.4531C6.94434 21.3539 7.79792 23.1768 9.31729 24.5209C10.8367 25.8649 12.8974 26.62 15.0461 26.62C17.1948 26.62 19.2555 25.8649 20.7749 24.5209C22.2942 23.1768 23.1478 21.3539 23.1478 19.4531V18.2859C24.2388 18.0367 25.1897 17.4441 25.8221 16.6191C26.4545 15.7941 26.7251 14.7934 26.5831 13.8045C26.4411 12.8157 25.8963 11.9066 25.0508 11.2476C24.2054 10.5887 23.1172 10.2252 21.9904 10.2252C20.8636 10.2252 19.7755 10.5887 18.93 11.2476C18.0845 11.9066 17.5397 12.8157 17.3978 13.8045C17.2558 14.7934 17.5264 15.7941 18.1588 16.6191C18.7912 17.4441 19.742 18.0367 20.833 18.2859V19.4531C20.833 20.8108 20.2233 22.1129 19.1381 23.0729C18.0528 24.033 16.5809 24.5723 15.0461 24.5723C13.5113 24.5723 12.0394 24.033 10.9541 23.0729C9.86882 22.1129 9.25913 20.8108 9.25913 19.4531C9.31771 18.2325 9.65564 17.0352 10.2525 15.9336C10.8493 14.8319 11.6926 13.8488 12.7313 13.0438C13.8038 12.3853 14.6799 11.5067 15.2846 10.4832C15.8893 9.45968 16.2046 8.32178 16.2035 7.16692V3.07154C16.2035 2.25692 15.8377 1.47566 15.1865 0.899633C14.5353 0.323608 13.6522 0 12.7313 0H11.5739C11.2669 0 10.9726 0.107869 10.7555 0.299878C10.5385 0.491886 10.4165 0.752305 10.4165 1.02385C10.4165 1.29539 10.5385 1.55581 10.7555 1.74781C10.9726 1.93982 11.2669 2.04769 11.5739 2.04769H12.7313C13.0383 2.04769 13.3326 2.15556 13.5497 2.34757C13.7668 2.53958 13.8887 2.8 13.8887 3.07154V7.16692C13.8887 7.83919 13.739 8.50487 13.4482 9.12597C13.1574 9.74706 12.7311 10.3114 12.1937 10.7868C11.6564 11.2621 11.0184 11.6392 10.3163 11.8965C9.6142 12.1537 8.86169 12.2862 8.10174 12.2862ZM21.9904 16.3815C21.3765 16.3815 20.7877 16.1658 20.3536 15.7818C19.9195 15.3978 19.6756 14.8769 19.6756 14.3338C19.6756 13.7908 19.9195 13.2699 20.3536 12.8859C20.7877 12.5019 21.3765 12.2862 21.9904 12.2862C22.6043 12.2862 23.1931 12.5019 23.6272 12.8859C24.0613 13.2699 24.3052 13.7908 24.3052 14.3338C24.3052 14.8769 24.0613 15.3978 23.6272 15.7818C23.1931 16.1658 22.6043 16.3815 21.9904 16.3815Z" fill="#159EEC"/>
</svg>
